<?xml version="1.0" encoding="utf-8"?>
<!-- Generator: Adobe Illustrator 17.0.0, SVG Export Plug-In . SVG Version: 6.00 Build 0)  -->
<!DOCTYPE svg [
	<!ENTITY ns_flows "http://ns.adobe.com/Flows/1.0/">
	<!ENTITY ns_extend "http://ns.adobe.com/Extensibility/1.0/">
	<!ENTITY ns_ai "http://ns.adobe.com/AdobeIllustrator/10.0/">
	<!ENTITY ns_graphs "http://ns.adobe.com/Graphs/1.0/">
	<!ENTITY ns_vars "http://ns.adobe.com/Variables/1.0/">
	<!ENTITY ns_imrep "http://ns.adobe.com/ImageReplacement/1.0/">
	<!ENTITY ns_sfw "http://ns.adobe.com/SaveForWeb/1.0/">
	<!ENTITY ns_custom "http://ns.adobe.com/GenericCustomNamespace/1.0/">
	<!ENTITY ns_adobe_xpath "http://ns.adobe.com/XPath/1.0/">
]>
<svg version="1.2" baseProfile="tiny" id="Capa_1" xmlns:x="&ns_extend;" xmlns:i="&ns_ai;" xmlns:graph="&ns_graphs;"
	 xmlns="http://www.w3.org/2000/svg" xmlns:xlink="http://www.w3.org/1999/xlink" xmlns:a="http://ns.adobe.com/AdobeSVGViewerExtensions/3.0/"
	 x="0px" y="0px" width="404px" height="138px" viewBox="0 0 404 138" overflow="visible" xml:space="preserve">
<metadata><?xpacket begin="﻿" id="W5M0MpCehiHzreSzNTczkc9d"?>
<x:xmpmeta xmlns:x="adobe:ns:meta/" x:xmptk="Adobe XMP Core 5.5-c014 79.151739, 2013/04/03-12:12:15        ">
   <rdf:RDF xmlns:rdf="http://www.w3.org/1999/02/22-rdf-syntax-ns#">
      <rdf:Description rdf:about=""
            xmlns:xmp="http://ns.adobe.com/xap/1.0/"
            xmlns:xmpGImg="http://ns.adobe.com/xap/1.0/g/img/"
            xmlns:xmpTPg="http://ns.adobe.com/xap/1.0/t/pg/"
            xmlns:stDim="http://ns.adobe.com/xap/1.0/sType/Dimensions#"
            xmlns:xmpG="http://ns.adobe.com/xap/1.0/g/"
            xmlns:dc="http://purl.org/dc/elements/1.1/"
            xmlns:xmpMM="http://ns.adobe.com/xap/1.0/mm/"
            xmlns:stRef="http://ns.adobe.com/xap/1.0/sType/ResourceRef#"
            xmlns:stEvt="http://ns.adobe.com/xap/1.0/sType/ResourceEvent#">
         <xmp:CreatorTool>Adobe Illustrator CC (Windows)</xmp:CreatorTool>
         <xmp:CreateDate>2015-09-14T15:59:06+02:00</xmp:CreateDate>
         <xmp:MetadataDate>2015-09-14T15:59:37+02:00</xmp:MetadataDate>
         <xmp:ModifyDate>2015-09-14T15:59:37+02:00</xmp:ModifyDate>
         <xmp:Thumbnails>
            <rdf:Alt>
               <rdf:li rdf:parseType="Resource">
                  <xmpGImg:width>256</xmpGImg:width>
                  <xmpGImg:height>76</xmpGImg:height>
                  <xmpGImg:format>JPEG</xmpGImg:format>
                  <xmpGImg:image>/9j/4AAQSkZJRgABAgEASABIAAD/7QAsUGhvdG9zaG9wIDMuMAA4QklNA+0AAAAAABAASAAAAAEA&#xA;AQBIAAAAAQAB/+4ADkFkb2JlAGTAAAAAAf/bAIQABgQEBAUEBgUFBgkGBQYJCwgGBggLDAoKCwoK&#xA;DBAMDAwMDAwQDA4PEA8ODBMTFBQTExwbGxscHx8fHx8fHx8fHwEHBwcNDA0YEBAYGhURFRofHx8f&#xA;Hx8fHx8fHx8fHx8fHx8fHx8fHx8fHx8fHx8fHx8fHx8fHx8fHx8fHx8fHx8f/8AAEQgATAEAAwER&#xA;AAIRAQMRAf/EAaIAAAAHAQEBAQEAAAAAAAAAAAQFAwIGAQAHCAkKCwEAAgIDAQEBAQEAAAAAAAAA&#xA;AQACAwQFBgcICQoLEAACAQMDAgQCBgcDBAIGAnMBAgMRBAAFIRIxQVEGE2EicYEUMpGhBxWxQiPB&#xA;UtHhMxZi8CRygvElQzRTkqKyY3PCNUQnk6OzNhdUZHTD0uIIJoMJChgZhJRFRqS0VtNVKBry4/PE&#xA;1OT0ZXWFlaW1xdXl9WZ2hpamtsbW5vY3R1dnd4eXp7fH1+f3OEhYaHiImKi4yNjo+Ck5SVlpeYmZ&#xA;qbnJ2en5KjpKWmp6ipqqusra6voRAAICAQIDBQUEBQYECAMDbQEAAhEDBCESMUEFURNhIgZxgZEy&#xA;obHwFMHR4SNCFVJicvEzJDRDghaSUyWiY7LCB3PSNeJEgxdUkwgJChgZJjZFGidkdFU38qOzwygp&#xA;0+PzhJSktMTU5PRldYWVpbXF1eX1RlZmdoaWprbG1ub2R1dnd4eXp7fH1+f3OEhYaHiImKi4yNjo&#xA;+DlJWWl5iZmpucnZ6fkqOkpaanqKmqq6ytrq+v/aAAwDAQACEQMRAD8A9U4q7FWpPsN8jglyVLeT&#xA;dKmmYdpTCD+5T5Zlw5BC/JK7FVK6akLe+2QyHZUDyY7VPyzFspTJV4qF8BTMwCghvCrsVdirsVdi&#xA;rsVdirsVdirsVdirsVdirsVdirsVdirsVdirsVdirsVdirsVab7J+WAqlmYaUxh/uk+QzLhyCF+S&#xA;V2KoS9kqQg7bnKM0uiVO2TlKPBdzkMYsqj8ykOxV2KuxV2KuxV2KuxV2KuxV2KuxV2KuxV2KuxV2&#xA;KuxV2KuxV2KuxV2KuxV2KuPTFUrzCSmUX90n+qP1Zlx5BC7JKsllWNOR+geJyMpUFS9izMSdycxC&#xA;bSjreL003+0dzmVCNBCrk1dirsVdiqT+YNT1C2lsLHThGL3UZmijlnBaONI42kdiqlSx4rsK5Xkk&#xA;RQHMqi9LfU/Slj1EwtPFJxWWAFVdOIIYoWcod9xXJRvqqR+V/MOrarJC9zNbiKRXZoI7S5RhSoFJ&#xA;3doj92VYshlz+4pRGt+ZrjS9etLaSJG0t4TJe3G/OHlIIkfrThyYBttq17YZ5OGQHRCN0bUL3U9E&#xA;W6BiiupDKqNwZowUkZFJTmpOy7/EMnCRlG1UvLt7rN41219NbvHb3EtsqwQPExaJqcyzTS7H+Wn0&#xA;4MZJu1SW5846jDqr24ltWC6iljHZGGYSujlBzE/qGMEcyaFO2VHMbrzpKda7qeoxX2naXp3pJdag&#xA;ZWNxOpdI44FBc8FKFmPMAfFls5GwB1Q35f1S+upL+x1AR/XtNmWKWSEERyK8ayI4UlipKtuKnHHI&#xA;mweYVOMsV2KuxV2KuxV2KuxV2KuxV2KuxV2KuxVLFUsaAVJ7ZhAWlMkBCKD1AFczByQslnSMb7t2&#xA;XIymAqCkkeRqt9AzGlIkpRNtb8fjf7XYeGXY8dblCIy5XYq7FXYq7FUBrGjW2qQxJK8kMsEglt7m&#xA;BuEsbgEVViCOhIIIpkJwElX6XpVvp0UiRNJLJPIZbieZuUkkhAXkxoB0UCgFMMY0qD0ry1Fpjxeh&#xA;f3jQQ8uFrJIpiowO3EIDtWo3yMcfD1Koy40iyuLtrmdfUaS3a0kjahRonYMwI96ZIwBNq7SNKtdJ&#xA;06HT7Xl9XgBEfM8mozFtzt3OMIiIoKvsdPgshOIeVLiaS4fka/HKatT2xjGlQsvl6wlt7mBi/C6u&#xA;lvXIIqJUdHHGo6ViGA4xSr9X0S21P0HeWW3ubVi9tdW7BJYyw4tQkMpDDYggjGcBJV2j6Na6XBJH&#xA;C8k0k8hluLiducskhAHJmoOwA2FMMICKo7JK7FXYq7FXYq7FXYq7FXYq7FXYq7FXYqxb8wNSutH8&#xA;q3N1p0xgvFeILIAC1GcA9QR0zGzHgjtzSEgtPzFlsPItlf38wudWuRMIkNA0jLM6gsFAoqgCuU/m&#xA;SIea0v8AI6+btQ/3K61eutrLVra04ovIN+21FqF/lHf5dYY+I7kqz+G2SPc/E3jmdDGAhWyxXYq8&#xA;10TzTr9x+Z1zpE14z6ck1yqW5VKAIrFRUDltTxzChlkctXsl6Vmah2KuxV5j+anmvzBo2s2cGmXj&#xA;W8Ulv6joFRgW5sK/ED2GYWpyyjIUUhktp5sGreQ73WbNxFeQWk5kVaExXEURbvXvRh7ZcMvFjMhz&#xA;pUH+VWu6trOj3c+p3BuZY7jgjsFFF4KafCB3OR00zIG1LNcyUOxVJ/ON9dWPljUbu0kMVzDCWikA&#xA;BINRvvUZXmkREkK820C6/NfXrE32n6kGgDmMlzEp5KATtw98w4HLIWClmXkyy8/QX87eZLpZ7UxU&#xA;hVShpJyG/wAKr+zXMjCMgPqVl+ZCHYqtkkjijeWRgkaAs7HYAAVJOKvJz5p88ectXuLby3J9R06D&#xA;/dmyUUkhWkkozcm7Kv8ACuYHizyGo7BLT+Z/PfkzVbeDzDJ+kNOn/brzqoIDGOQhW5L4N/GuPiZM&#xA;Z9W4V6xBNFPDHPCweKVQ8bjoVYVBHzGZwNoX4VdirAvzM856po8tnpWkkRXl4ObXDAHipbgoXl8N&#xA;Sa1J6Zi6jMY0BzKQkmq2/wCavluGPUW1MahGXCywpWYAnsUdB8O1KrlUhlhvdq9J0HU31PR7S/eF&#xA;reSeMNJCwIKsNmG+9KjbMyEuIAoR+TVa8iIKsaDAZAc1Qkt27bJ8I/HMeWUnklh35m/8ohdf68X/&#xA;ACcGY+X6VeYr5X10+Wk8x8Q9hE/pxKTzYIHIL8TUcPUqPn2plHhS4eLol675R8x2+vaRHcpRLiOk&#xA;d1CP2XA7D+Vuo/szIhKwhktrcUpG52/ZP8Mycc+hVFZeh2KvIPLv/k5Lz/jPd/8AEWzX4/74/FPR&#xA;6/mwQ7FXYq8p/M+NJPPegRyKHjcQq6sKgg3BBBGYGp/vAkJTrEd15H1bV9MUM+jazaTpAOv20ZYz&#xA;/rRs3E/5JrkJ3iJHQhLKPyS/44F9/wAxf/MtMu0f0n3oL0TMxDsVSDz/AP8AKG6t/wAYD+sZVn+g&#xA;qHm/kTyz5s1LRGuNK1xtOtRM6G3UuByAUlvhNN65h4MczGwaZF6P5R0TX9LjuV1jVG1NpShhZix4&#xA;BQeQ+LxrmZihKPM2xZBlquxVLPNEU0vlrVYoKmV7OdUA3JJjbYfPIZB6T7lYP+SNxbHTdStwR9aE&#xA;ySMvcxlaKfoIOYujIopKp+dtxbDRLC3Yj609z6kY7+msbB/xZcOsI4QoZh5Qjlj8q6QkoIcWkNQe&#xA;o+AUGZGL6B7kJvliuxVgvn/TPKet31rpl7qH1HXBxW0bgzchKaKrCgUgt0+LrmLnjCRompJDF9R0&#xA;P8xfJtm17a6oZ9NgI5Krl1RSaDlDKCoFT+zXKZQyYxYOyvR/JnmF9f8AL1vqMiCOduUc6r9nmhoS&#xA;tex65l4cnHG0FOJZVjTkevYZOUqCoRUlnbkenj2GY4BkUomO2iQVI5HxOXRxgIYx5r0SXW9Em06K&#xA;VYXkZGEjAkDgwbt8sw5xsUlMPK3l4aZ5Vt9Fuyl0qpKs1B8DrM7ORQ+z0zLxQqABQxvy9+W+p6Dr&#xA;z3ljqEbadIxV7Z1bkYSaqCRtyXsf65RHTGJ2OybZc6MjFW6jEiiqKtrjl8DH4ux8cvxzvYoRGWqw&#xA;rTPIN5Z+eJ/MbXUbwSyTOIArcwJQQN+m1cxo4CJ8VptmuZKHYq7FWIeavJF1rXmPTNWiuY4Y7H0+&#xA;cTKSzcJTJsRmPlwmUge5Nph508qW/mXSDaMwiuY2ElrcEV4N0INOzDrk82LjFICh5C8pXHlnTri0&#xA;nuEuGmm9UMgIAHELTf5ZHBiMBSSybL0OxVLfMelSatod5p0biJ7qMosjAkAkg70yGSPFEhWAWX5W&#xA;+cLGH0bLzG1rCSW9OF5415HqaKwFdsxBppjlJNsl8oeV/MukX00+q61JqcMkXCOJ5JXCtyB5UkJH&#xA;QUy/FjlE7m1ZZl6HYq7FXnGsflXfRao+peV9R/R0khJMJZ4wvL7QSSPkeJ/lIzDnpjdxNJtbpX5V&#xA;ahc6kmoeatS/SDRkfuFZ5A4U1CtJIFPH/JAxjpSTcza29JAAFBsB0GZiHYq7FWJeePIEHmRobyC4&#xA;+qanbrwSahKsoPIK1KEcSdiMx82Dj36pBY7N+Xf5gajELLVtfjfT6jkoeWQnj0qpWPl9LZUdPkOx&#xA;lstvQNC0W00XSrfTbSphgUjk32mYkszGnck5lQgIighVZTPOQfsJtlZHFLyCUUAAKAUA6DLwENN9&#xA;k/LAVYg3mKf1HmW0B02K6+pS3BkpL6nqCEssXGhQSGn2696ZgcSUwm8yzW+sw6YbaNY3MSLLLMYn&#xA;k9SnxQqyenIE/aHqcvAeOSMlEBUVLqerLrkenJZwNBIhmFwbh1cRIyK59MQEcvj2HOh8RkzI8VV+&#xA;PkhAJ5ie91mbTlitYzbztBV7lhO3FQxZYRCVI3/35lUpcRrZKGm8w3EclxMloDp9nP8AVricycZA&#xA;4KqzJHxIKqW3q4PhlBkQqveecntdSexEEEjRGEFDcFLmT1jSsUHptz49/jGXjP0Wke/mOFfMa6MY&#xA;tmQf6TyFBOVMgh4UrX0lL1rlvierhQus9T1ebV57Gayt44bdUeSdLl3bjLz4cUMCAmsfxfFt74iR&#xA;uq/HyVDf4gntfLx1CRPrV09xJBBByWP1H+sNEihqUUACtSDsO+DxKjapvp99Bf2Nve25rDcxrLH4&#xA;0YVoffLIysWqXab5hmvdQOnmyaK5t+f6Rq1Uhof3XFuI9T1R8S9Ph6+GQjks1Sq+u6lqGn2yXFra&#xA;xXKc1SUSzNCQZHWNOPGKblu+/SnvhnIgbKhNY8x3OmS2MEsNqk91FLJIZ7l4okMJjBRXEDs5Pq7V&#xA;VemRnkMa5Ks1jzS2nCwDJaA3kEk7STXLRQr6XpfCjiGQvy9baqrsMZ5arluq7UfNP1LQLTVGs3Nx&#xA;dqjJYM3CQExmWQVI6pGjHpvSm1cZZaiDSt655pj086eYfqzxagrvHcXVx9WiCoqsKN6ctS3PYUxn&#xA;lqvNUTZ64bhNLY2zRHUo2kKud4+KBqUpvWvthE7rzVT0/wAyQXmuXmlrHx+rV9GfkCJTHxWYBafD&#xA;6buF98Y5LkQqjpnmWa81mXT5LaODgZQFaalwBE3EO8LonwyDdTGzjxwRyWaVMdR1L6nNYRen6n16&#xA;5+rV5U4fupJeXQ1/uqU98nKVV5qli+bojfXFk1uUnhuo7aMF9pI5JFiMqmn7DN8S/LffIeLvXmqJ&#xA;bVtVGvrpYsoDC0ZuPrH1hw3pBwh/d+jTlVunOnvh4zxVSobT/NMl5rM2niO1jWG4ltyGuW+sN6Vf&#xA;iEPo8d6f78wRy2aV0vmlkvQvpW62RujZLJLcrFPJIrBJGiiZeLKjHf4+R7DpVOXfytVLUvOD2erS&#xA;2CW8MpikhiEZuGW5k9UK1YoREwbiH/nHTBLLRpKN1TzJBYaxY6c8fIXVPWm5UEIduENVp8XqSfD1&#xA;2yUslEBClq3mG9sZ7307JJ7TToI7m7k9YpL6b8y3px+mytxWMndxglkIvbkqprHma20y8sbdo/VS&#xA;7NZZQwAiiLpGshFDUGSVR8qnthnkESFUte8zTaXfQ2y20bxyIHM083oKxZivpxMyNGZB1o7r2+gT&#xA;ycJpU5tlpED3bc/TksY2VVyatSfYb5HBLkrGG8u6e12bgmXg0ouGtvUPomZSCJCnjUA+Fd8weEJT&#xA;F/LtjdTC5lebi7xTS2wkIheSDj6bsniOC9OtN8yY4wRaExNnCb1Lwg+ukbQqa7cHZWO3zQZbW9qg&#xA;odBt4b2S6huLiMzTGeWFZP3TOQAarTvxyIhRtUPf+VdPnuXugZQJJFnntVciGSRKcXZPEcR86b5X&#xA;kwg7hNrobaOG6muY6iWfjzNdvgFBTKRsbV0fl7RbiRrhoR9dNwt0bnb1hIrAgB6V4UXjx6U2y+MY&#xA;y36qmcdnDHdzXSg+tOqJIa7Uj5caD/ZnLa3tCDfy9pUkdvFNF60NtLLNHDJ8aGSYsWLKdmp6jUr0&#xA;yPhhUTp2nWun231a1UpAHd0jrsvqMXKr4LVjQdsMYgCgq+KzhiuZ7lAfVueHqknb4BRafRhA3tXX&#xA;lnDeQGCYExlkfY0NY3Dr/wAMoxItUPqGkQ3txDcGaaCeBJI0kgfgeEpQsDsa7xLglC1XPpVpK0TT&#xA;gztFbyWv7w8ucc3Ayc/5i3pLjwhVAeW9KKWcc8X1qOxjaK3juKSqFbjuQwNWAQAE9sHhjbyVfa6F&#xA;YWv1L0gwGnrIlqCxPFJaVX5AAAeGIgBXkqKls4ZbmC5cH1bbn6RB2+MUav0ZIje1QNr5Z0e1lt54&#xA;IQlzbu7i4FPUkMgYP6rUq9edd++RGMBW7Xy7Y216t0jzP6Rka3hkkLRxNN9sop6Vqe+3bEYwDaou&#xA;7sLe6ktZJQS1pN68NDT4+DR7+PwyHJGNqhJvLmlTSxSyRkywXRvYnruJTSv+xNBUZE4wVRZsLc6g&#xA;L+h+sLCYAa7cCwc7fMZLh3tUJbaDb213Jcw3FwglmaeSASfui7mrfDTvkRCjarZvLWny3LTF5kik&#xA;lW4mtUkZYXlUhg7KPdQSAaHuMBxi1VbrQrC6W5EoblcyRzs6tRlkhChHQ/skcBhMAVUr3yzo97Jc&#xA;zXUIlnugqmdqGSMIKL6TUqlDvt3wHGDzV1/5csb64kmnkm4zokVzCkhWOVIySFdRSo+I1xljBVdf&#xA;+W9H1CW4mvLdZ5LmIQF3AYoi8qekSPgNXJqO+GWMHmq3UPLdlfkmaWcCSJbe5VJCqzxLUhZR3+0d&#xA;xQ79cEsYKppHTgtOlBTJx5K3hV2Ku2p7Yq4U7Yq7FXYq7FXCnbFXbV98VdirsVdirsVdirsVdirs&#xA;VdirsVdirsVdirsVdirsVdirsVdirsVdirsVf//Z</xmpGImg:image>
               </rdf:li>
            </rdf:Alt>
         </xmp:Thumbnails>
         <xmpTPg:MaxPageSize rdf:parseType="Resource">
            <stDim:w>404.000000</stDim:w>
            <stDim:h>138.000000</stDim:h>
            <stDim:unit>Pixels</stDim:unit>
         </xmpTPg:MaxPageSize>
         <xmpTPg:NPages>1</xmpTPg:NPages>
         <xmpTPg:HasVisibleTransparency>False</xmpTPg:HasVisibleTransparency>
         <xmpTPg:HasVisibleOverprint>False</xmpTPg:HasVisibleOverprint>
         <xmpTPg:PlateNames>
            <rdf:Seq>
               <rdf:li>Cyan</rdf:li>
               <rdf:li>Magenta</rdf:li>
               <rdf:li>Yellow</rdf:li>
               <rdf:li>Black</rdf:li>
            </rdf:Seq>
         </xmpTPg:PlateNames>
         <xmpTPg:SwatchGroups>
            <rdf:Seq>
               <rdf:li rdf:parseType="Resource">
                  <xmpG:groupName>Grupo de muestras por defecto</xmpG:groupName>
                  <xmpG:groupType>0</xmpG:groupType>
               </rdf:li>
            </rdf:Seq>
         </xmpTPg:SwatchGroups>
         <dc:format>image/svg+xml</dc:format>
         <xmpMM:DerivedFrom rdf:parseType="Resource">
            <stRef:instanceID>xmp.iid:d8dffbae-8f66-f04e-acd4-8e15e8b3559e</stRef:instanceID>
            <stRef:documentID>xmp.did:d8dffbae-8f66-f04e-acd4-8e15e8b3559e</stRef:documentID>
            <stRef:originalDocumentID>xmp.did:8c330e70-6bff-aa49-9d31-a4ac0cbb4392</stRef:originalDocumentID>
         </xmpMM:DerivedFrom>
         <xmpMM:DocumentID>xmp.did:dbbf1077-3827-fe43-8664-a065adf2f774</xmpMM:DocumentID>
         <xmpMM:InstanceID>xmp.iid:dbbf1077-3827-fe43-8664-a065adf2f774</xmpMM:InstanceID>
         <xmpMM:OriginalDocumentID>xmp.did:8c330e70-6bff-aa49-9d31-a4ac0cbb4392</xmpMM:OriginalDocumentID>
         <xmpMM:History>
            <rdf:Seq>
               <rdf:li rdf:parseType="Resource">
                  <stEvt:action>saved</stEvt:action>
                  <stEvt:instanceID>xmp.iid:8c330e70-6bff-aa49-9d31-a4ac0cbb4392</stEvt:instanceID>
                  <stEvt:when>2015-09-14T15:53:07+02:00</stEvt:when>
                  <stEvt:softwareAgent>Adobe Illustrator CC (Windows)</stEvt:softwareAgent>
                  <stEvt:changed>/</stEvt:changed>
               </rdf:li>
               <rdf:li rdf:parseType="Resource">
                  <stEvt:action>saved</stEvt:action>
                  <stEvt:instanceID>xmp.iid:dbbf1077-3827-fe43-8664-a065adf2f774</stEvt:instanceID>
                  <stEvt:when>2015-09-14T15:59:37+02:00</stEvt:when>
                  <stEvt:softwareAgent>Adobe Illustrator CC (Windows)</stEvt:softwareAgent>
                  <stEvt:changed>/</stEvt:changed>
               </rdf:li>
            </rdf:Seq>
         </xmpMM:History>
      </rdf:Description>
   </rdf:RDF>
</x:xmpmeta>
                                                                                                    
                                                                                                    
                                                                                                    
                                                                                                    
                                                                                                    
                                                                                                    
                                                                                                    
                                                                                                    
                                                                                                    
                                                                                                    
                                                                                                    
                                                                                                    
                                                                                                    
                                                                                                    
                                                                                                    
                                                                                                    
                                                                                                    
                                                                                                    
                                                                                                    
                                                                                                    
                           
<?xpacket end="w"?>
	</metadata>
<g>
	<g>
		<path fill-rule="evenodd" fill="#F1F3DB" d="M101.95,88.472c-8.217-9.4-16.355-18.653-24.427-27.726
			c-3.423,2.093-6.779,4.097-10.024,6.069c1.569,1.662,3.696,4.063,6.451,7.315c3.337,3.938,7.081,8.389,11.229,13.329
			c4.136,4.927,8.386,10.045,12.73,15.338c4.338,5.298,8.311,9.998,11.911,14.09c1.391-0.273,2.758-0.392,4.112-0.392
			c1.344,0,2.719,0,4.119,0c1.497,0,2.992,0,4.493,0c1.495,0,2.993,0.12,4.491,0.392C118.545,107.384,110.18,97.922,101.95,88.472
			L101.95,88.472z M63.99,78.549v-9.58c-0.864,0.547-1.75,1.075-2.598,1.618c-3.532,2.231-6.733,4.683-9.689,7.212v0.721
			c0,6.584-0.12,13.092-0.362,19.474c-0.249,6.397-0.515,12.681-0.809,18.893c2.291-0.273,4.723-0.392,7.318-0.392
			c2.581,0,5.024,0.12,7.308,0.392c-0.293-6.195-0.553-12.478-0.806-18.882C64.114,91.619,63.99,85.127,63.99,78.549L63.99,78.549z
			 M57.85,14.703c-1.194,0-2.392-0.082-3.591-0.246c-1.194-0.137-2.436-0.33-3.727-0.53c0.294,6.581,0.56,13.07,0.809,19.405
			c0.242,6.33,0.362,12.815,0.362,19.402v11.438c1.43-0.977,2.859-1.95,4.328-2.953c2.628-1.768,5.29-3.58,7.959-5.433v-3.082
			c0-6.578,0.124-13.048,0.361-19.38c0.253-6.349,0.513-12.817,0.806-19.398c-1.293,0.199-2.539,0.393-3.73,0.53
			C60.235,14.621,59.041,14.704,57.85,14.703L57.85,14.703z"/>
		<path fill-rule="evenodd" fill="#F1F3DB" d="M17.903,122.214c-5.12-34.326,25.049-46.068,47.347-56.31
			c18.827-8.645,38.482-21.486,41.646-52.118c0,0,2.042,0.897,7.011,0.897c4.97,0,7.615-0.897,7.615-0.897
			C117.02,43.779,98.77,60.628,74.748,72.399C45.338,86.809,20.263,88.888,17.903,122.214L17.903,122.214z"/>
	</g>
	<polygon fill-rule="evenodd" fill="#838754" points="59.956,62.185 65.772,62.185 65.772,73.149 76.106,62.185 83.366,62.185 
		73.032,72.63 84.366,88.632 77.069,88.632 69.105,76.742 65.772,80.113 65.772,88.632 59.956,88.632 59.956,62.185 	"/>
	<polygon fill-rule="evenodd" fill="#838754" points="122.175,62.185 127.991,62.185 127.991,88.632 122.175,88.632 122.175,62.185 
			"/>
	<polygon fill-rule="evenodd" fill="#838754" points="170.602,62.185 176.38,62.185 187.418,79.927 187.492,79.927 187.492,62.185 
		192.937,62.185 192.937,88.632 187.122,88.632 176.121,70.927 176.047,70.927 176.047,88.632 170.602,88.632 170.602,62.185 	"/>
	<polygon fill-rule="evenodd" fill="#838754" points="232.337,62.185 252.116,62.185 252.116,67.074 238.152,67.074 238.152,72.742 
		250.969,72.742 250.969,77.261 238.152,77.261 238.152,83.743 252.413,83.743 252.413,88.632 232.337,88.632 232.337,62.185 	"/>
	<path fill-rule="evenodd" fill="#838754" d="M302.891,84.373c5.223,0,7.185-4.445,7.185-8.853c0-4.63-1.962-9.075-7.186-9.075
		c-5.222,0-7.186,4.445-7.186,9.075C295.705,79.927,297.668,84.373,302.891,84.373L302.891,84.373z M302.891,61.556
		c8.186,0,13.001,6.111,13.001,13.964c0,7.63-4.815,13.742-13.002,13.742c-8.186,0-13-6.111-13-13.742
		C289.89,67.667,294.704,61.556,302.891,61.556L302.891,61.556z"/>
	<path fill-rule="evenodd" fill="#838754" d="M357.949,79.854c0,3.518,2.74,4.889,5.852,4.889c2.037,0,5.149-0.593,5.149-3.296
		c0-2.852-3.964-3.334-7.853-4.371c-3.926-1.037-7.889-2.556-7.889-7.52c0-5.408,5.112-8,9.89-8c5.519,0,10.593,2.407,10.593,8.519
		h-5.63c-0.185-3.186-2.446-4.001-5.224-4.001c-1.851,0-4,0.778-4,3c0,2.038,1.26,2.297,7.89,4.001
		c1.925,0.481,7.852,1.704,7.852,7.705c0,4.853-3.815,8.482-11.001,8.482c-5.852,0-11.334-2.888-11.26-9.408H357.949L357.949,79.854
		z"/>
	<g>
		<path fill="#838754" d="M180.343,47.798h1.426c-0.062,1.314-0.513,2.36-1.346,3.141c-0.833,0.778-1.909,1.169-3.228,1.169
			c-1.522,0-2.713-0.518-3.576-1.554c-0.864-1.036-1.294-2.472-1.294-4.305c0-1.692,0.453-3.036,1.356-4.032
			c0.903-0.994,2.125-1.492,3.659-1.492c1.221,0,2.222,0.315,3.001,0.946c0.781,0.631,1.231,1.491,1.354,2.583h-1.441
			c-0.138-0.713-0.463-1.264-0.974-1.647c-0.513-0.383-1.181-0.576-2.002-0.576c-1.094,0-1.942,0.383-2.545,1.151
			c-0.603,0.768-0.906,1.85-0.906,3.249c0,1.319,0.313,2.378,0.941,3.173c0.628,0.798,1.461,1.196,2.498,1.196
			c0.884,0,1.609-0.275,2.173-0.823C180.003,49.427,180.303,48.701,180.343,47.798L180.343,47.798z"/>
		<polygon fill="#838754" points="189.026,51.807 189.026,41.01 196.724,41.01 196.724,42.347 190.482,42.347 190.482,45.575 
			196.249,45.575 196.249,46.837 190.482,46.837 190.482,50.456 196.849,50.456 196.849,51.807 189.026,51.807 		"/>
		<path fill="#838754" d="M205.324,51.807V41.01h1.607l5.051,7.844c0.112,0.17,0.21,0.33,0.293,0.483
			c0.082,0.15,0.147,0.293,0.197,0.425V41.01h1.397v10.797h-1.592l-5.153-7.954c-0.077-0.12-0.15-0.248-0.215-0.381
			c-0.067-0.132-0.13-0.27-0.187-0.418v8.752H205.324L205.324,51.807z"/>
		<polygon fill="#838754" points="224.679,51.807 224.679,42.317 221.27,42.317 221.27,41.01 229.559,41.01 229.559,42.317 
			226.15,42.317 226.15,51.807 224.679,51.807 		"/>
		<path fill="#838754" d="M238.058,42.272v3.664h2.505c0.906,0,1.544-0.148,1.92-0.441c0.373-0.293,0.561-0.783,0.561-1.469
			c0-0.641-0.175-1.094-0.528-1.359c-0.353-0.263-1.004-0.395-1.952-0.395H238.058L238.058,42.272z M236.616,41.01h4.19
			c0.678,0,1.179,0.03,1.499,0.088c0.32,0.06,0.608,0.158,0.861,0.293c0.456,0.25,0.801,0.598,1.039,1.041
			c0.238,0.446,0.356,0.969,0.356,1.569c0,0.581-0.125,1.079-0.373,1.492c-0.25,0.413-0.621,0.736-1.114,0.971
			c0.42,0.117,0.718,0.315,0.898,0.593c0.178,0.278,0.288,0.751,0.333,1.414l0.125,1.782c0.022,0.381,0.072,0.666,0.15,0.853
			c0.075,0.188,0.188,0.323,0.34,0.401v0.3h-1.695c-0.138-0.225-0.232-0.706-0.288-1.444V50.32l-0.09-1.409
			c-0.048-0.723-0.203-1.191-0.461-1.406c-0.26-0.215-0.906-0.323-1.942-0.323h-2.373v4.625h-1.457V41.01L236.616,41.01z"/>
		<path fill="#838754" d="M253.134,46.416c0,1.384,0.318,2.465,0.956,3.246c0.638,0.778,1.522,1.169,2.65,1.169
			c1.126,0,2.005-0.39,2.638-1.169c0.633-0.781,0.949-1.862,0.949-3.246c0-1.389-0.316-2.473-0.949-3.249
			c-0.633-0.778-1.512-1.166-2.638-1.166c-1.129,0-2.012,0.388-2.65,1.166C253.453,43.943,253.134,45.027,253.134,46.416
			L253.134,46.416z M251.618,46.416c0-1.784,0.453-3.179,1.359-4.185c0.908-1.004,2.162-1.507,3.764-1.507
			c1.599,0,2.848,0.501,3.752,1.504c0.901,1.001,1.351,2.398,1.351,4.187c0,1.784-0.45,3.179-1.351,4.184
			c-0.903,1.004-2.152,1.507-3.752,1.507c-1.602,0-2.856-0.503-3.764-1.507C252.071,49.595,251.618,48.201,251.618,46.416
			L251.618,46.416z"/>
	</g>
	<path fill="#838754" d="M53.155,104.199c0-1.515,0.409-2.702,1.224-3.56c0.815-0.857,1.866-1.285,3.155-1.285
		c0.845,0,1.604,0.202,2.283,0.604c0.677,0.402,1.194,0.964,1.549,1.685c0.355,0.719,0.534,1.536,0.534,2.449
		c0,0.926-0.187,1.755-0.562,2.485c-0.375,0.732-0.904,1.285-1.589,1.66c-0.687,0.377-1.428,0.564-2.221,0.564
		c-0.862,0-1.63-0.208-2.308-0.623c-0.677-0.415-1.192-0.981-1.541-1.7C53.33,105.76,53.155,105.001,53.155,104.199L53.155,104.199z
		 M54.406,104.22c0,1.1,0.296,1.966,0.887,2.598c0.592,0.632,1.334,0.949,2.228,0.949c0.911,0,1.657-0.319,2.247-0.957
		c0.587-0.638,0.881-1.545,0.881-2.719c0-0.743-0.125-1.392-0.377-1.945c-0.251-0.553-0.619-0.983-1.102-1.287
		c-0.485-0.304-1.028-0.457-1.63-0.457c-0.855,0-1.591,0.294-2.208,0.881C54.715,101.869,54.406,102.848,54.406,104.22
		L54.406,104.22z"/>
	<path fill="#838754" d="M65.897,105.712l1.136-0.102c0.053,0.459,0.179,0.836,0.377,1.132c0.198,0.294,0.504,0.532,0.919,0.715
		c0.415,0.181,0.883,0.272,1.402,0.272c0.462,0,0.868-0.068,1.221-0.206c0.353-0.138,0.615-0.327,0.787-0.568
		c0.172-0.241,0.26-0.502,0.26-0.783c0-0.285-0.083-0.534-0.249-0.749c-0.166-0.213-0.44-0.392-0.823-0.538
		c-0.245-0.094-0.787-0.242-1.628-0.445c-0.84-0.202-1.428-0.391-1.764-0.57c-0.436-0.23-0.76-0.515-0.972-0.853
		c-0.215-0.338-0.321-0.719-0.321-1.138c0-0.464,0.132-0.896,0.394-1.296c0.262-0.402,0.642-0.706,1.147-0.915
		c0.502-0.209,1.062-0.313,1.677-0.313c0.677,0,1.274,0.109,1.791,0.328c0.517,0.217,0.915,0.538,1.194,0.964
		c0.279,0.423,0.428,0.904,0.449,1.441l-1.162,0.089c-0.062-0.577-0.272-1.013-0.632-1.307c-0.36-0.296-0.892-0.442-1.594-0.442
		c-0.732,0-1.266,0.134-1.6,0.402c-0.334,0.268-0.502,0.591-0.502,0.97c0,0.328,0.119,0.598,0.355,0.811
		c0.234,0.211,0.84,0.43,1.824,0.651c0.983,0.223,1.657,0.417,2.023,0.583c0.53,0.245,0.923,0.553,1.177,0.93
		c0.253,0.374,0.379,0.807,0.379,1.296c0,0.487-0.138,0.942-0.417,1.372c-0.279,0.43-0.677,0.764-1.198,1.002
		c-0.521,0.238-1.106,0.357-1.76,0.357c-0.825,0-1.517-0.121-2.074-0.362c-0.56-0.24-0.996-0.602-1.313-1.087
		C66.08,106.869,65.914,106.322,65.897,105.712L65.897,105.712z"/>
	<polygon fill="#838754" points="79.969,108.648 79.969,100.58 76.956,100.58 76.956,99.507 84.194,99.507 84.194,100.58 
		81.182,100.58 81.182,108.648 79.969,108.648 	"/>
	<polygon fill="#838754" points="88.306,108.648 88.306,99.507 94.906,99.507 94.906,100.58 89.519,100.58 89.519,103.388 
		94.562,103.388 94.562,104.461 89.519,104.461 89.519,107.575 95.123,107.575 95.123,108.648 88.306,108.648 	"/>
	<path fill="#838754" d="M99.263,104.199c0-1.515,0.409-2.702,1.224-3.56c0.815-0.857,1.866-1.285,3.155-1.285
		c0.845,0,1.604,0.202,2.283,0.604c0.677,0.402,1.194,0.964,1.549,1.685c0.355,0.719,0.534,1.536,0.534,2.449
		c0,0.926-0.187,1.755-0.562,2.485c-0.375,0.732-0.904,1.285-1.589,1.66c-0.687,0.377-1.428,0.564-2.221,0.564
		c-0.862,0-1.63-0.208-2.308-0.623c-0.677-0.415-1.192-0.981-1.541-1.7C99.437,105.76,99.263,105.001,99.263,104.199L99.263,104.199
		z M100.514,104.22c0,1.1,0.296,1.966,0.887,2.598c0.592,0.632,1.334,0.949,2.228,0.949c0.911,0,1.657-0.319,2.247-0.957
		c0.587-0.638,0.881-1.545,0.881-2.719c0-0.743-0.125-1.392-0.377-1.945c-0.251-0.553-0.619-0.983-1.102-1.287
		c-0.485-0.304-1.028-0.457-1.63-0.457c-0.855,0-1.591,0.294-2.208,0.881C100.823,101.869,100.514,102.848,100.514,104.22
		L100.514,104.22z"/>
	<path fill="#838754" d="M112.4,108.648v-9.141h3.451c0.606,0,1.07,0.03,1.392,0.087c0.449,0.074,0.826,0.217,1.13,0.426
		c0.304,0.211,0.549,0.504,0.734,0.881c0.185,0.376,0.277,0.792,0.277,1.245c0,0.775-0.247,1.432-0.743,1.968
		c-0.494,0.538-1.389,0.806-2.683,0.806h-2.345v3.728H112.4L112.4,108.648z M113.613,103.848h2.362c0.783,0,1.336-0.145,1.666-0.436
		c0.328-0.291,0.492-0.7,0.492-1.23c0-0.381-0.096-0.709-0.29-0.981c-0.194-0.272-0.449-0.453-0.764-0.54
		c-0.204-0.053-0.581-0.081-1.128-0.081h-2.338V103.848L113.613,103.848z"/>
	<path fill="#838754" d="M121.804,108.648l3.506-9.141h1.33l3.721,9.141h-1.376l-1.057-2.77h-3.849l-0.992,2.77H121.804
		L121.804,108.648z M124.434,104.895h3.115l-0.953-2.534c-0.287-0.77-0.504-1.406-0.655-1.908c-0.125,0.596-0.294,1.181-0.504,1.76
		L124.434,104.895L124.434,104.895z"/>
	<polygon fill="#838754" points="135.535,108.648 135.535,100.58 132.523,100.58 132.523,99.507 139.761,99.507 139.761,100.58 
		136.748,100.58 136.748,108.648 135.535,108.648 	"/>
	<path fill="#838754" d="M144.051,108.648v-9.141h1.213v9.141H144.051L144.051,108.648z M143.681,98.946l0.817-1.749h1.481
		l-1.366,1.749H143.681L143.681,98.946z"/>
	<path fill="#838754" d="M149.23,108.648l3.506-9.141h1.33l3.721,9.141h-1.377l-1.057-2.77h-3.849l-0.992,2.77H149.23
		L149.23,108.648z M151.859,104.895h3.115l-0.953-2.534c-0.287-0.77-0.504-1.406-0.655-1.908c-0.125,0.596-0.294,1.181-0.504,1.76
		L151.859,104.895L151.859,104.895z"/>
	<polygon fill="#838754" points="186.138,108.648 186.138,100.58 183.125,100.58 183.125,99.507 190.364,99.507 190.364,100.58 
		187.351,100.58 187.351,108.648 186.138,108.648 	"/>
	<polygon fill="#838754" points="194.476,108.648 194.476,99.507 201.076,99.507 201.076,100.58 195.688,100.58 195.688,103.388 
		200.731,103.388 200.731,104.461 195.688,104.461 195.688,107.575 201.293,107.575 201.293,108.648 194.476,108.648 	"/>
	<path fill="#838754" d="M205.828,108.648v-9.141h4.051c0.815,0,1.434,0.083,1.857,0.247c0.423,0.164,0.762,0.453,1.015,0.868
		c0.253,0.415,0.379,0.874,0.379,1.377c0,0.649-0.211,1.196-0.63,1.64c-0.419,0.445-1.066,0.726-1.943,0.847
		c0.321,0.153,0.564,0.306,0.73,0.456c0.353,0.323,0.687,0.73,1,1.217l1.581,2.489h-1.511l-1.209-1.902
		c-0.351-0.551-0.642-0.97-0.87-1.262c-0.23-0.291-0.434-0.494-0.615-0.611c-0.179-0.115-0.364-0.196-0.551-0.243
		c-0.136-0.028-0.36-0.043-0.672-0.043h-1.4v4.06H205.828L205.828,108.648z M207.041,103.541h2.596c0.553,0,0.983-0.057,1.294-0.172
		c0.311-0.113,0.547-0.296,0.706-0.549c0.162-0.251,0.242-0.524,0.242-0.819c0-0.432-0.155-0.789-0.468-1.068
		c-0.313-0.279-0.807-0.417-1.481-0.417h-2.889V103.541L207.041,103.541z"/>
	<path fill="#838754" d="M216.857,108.648l3.506-9.141h1.33l3.721,9.141h-1.376l-1.057-2.77h-3.849l-0.992,2.77H216.857
		L216.857,108.648z M219.487,104.895h3.115l-0.953-2.534c-0.287-0.77-0.504-1.406-0.655-1.908c-0.125,0.596-0.294,1.181-0.504,1.76
		L219.487,104.895L219.487,104.895z"/>
	<path fill="#838754" d="M229.212,108.648v-9.141h3.451c0.606,0,1.07,0.03,1.391,0.087c0.449,0.074,0.826,0.217,1.13,0.426
		c0.304,0.211,0.549,0.504,0.734,0.881c0.185,0.376,0.277,0.792,0.277,1.245c0,0.775-0.247,1.432-0.743,1.968
		c-0.494,0.538-1.389,0.806-2.683,0.806h-2.345v3.728H229.212L229.212,108.648z M230.424,103.848h2.362
		c0.783,0,1.336-0.145,1.666-0.436c0.328-0.291,0.492-0.7,0.492-1.23c0-0.381-0.096-0.709-0.29-0.981
		c-0.194-0.272-0.449-0.453-0.764-0.54c-0.204-0.053-0.581-0.081-1.128-0.081h-2.338V103.848L230.424,103.848z"/>
	<polygon fill="#838754" points="240.768,108.648 240.768,99.507 241.981,99.507 241.981,108.648 240.768,108.648 	"/>
	<path fill="#838754" d="M245.946,108.648l3.506-9.141h1.33l3.721,9.141h-1.377l-1.057-2.77h-3.849l-0.992,2.77H245.946
		L245.946,108.648z M248.576,104.895h3.115l-0.953-2.534c-0.287-0.77-0.504-1.406-0.655-1.908c-0.125,0.596-0.294,1.181-0.504,1.76
		L248.576,104.895L248.576,104.895z"/>
	<path fill="#838754" d="M257.905,105.712l1.136-0.102c0.053,0.459,0.179,0.836,0.377,1.132c0.198,0.294,0.504,0.532,0.919,0.715
		c0.415,0.181,0.883,0.272,1.402,0.272c0.462,0,0.868-0.068,1.221-0.206c0.353-0.138,0.615-0.327,0.787-0.568
		c0.172-0.241,0.259-0.502,0.259-0.783c0-0.285-0.083-0.534-0.249-0.749c-0.166-0.213-0.44-0.392-0.823-0.538
		c-0.245-0.094-0.787-0.242-1.628-0.445c-0.84-0.202-1.428-0.391-1.764-0.57c-0.436-0.23-0.759-0.515-0.972-0.853
		c-0.215-0.338-0.321-0.719-0.321-1.138c0-0.464,0.132-0.896,0.394-1.296c0.262-0.402,0.642-0.706,1.147-0.915
		c0.502-0.209,1.062-0.313,1.677-0.313c0.677,0,1.274,0.109,1.791,0.328c0.517,0.217,0.915,0.538,1.194,0.964
		c0.279,0.423,0.428,0.904,0.449,1.441l-1.161,0.089c-0.062-0.577-0.272-1.013-0.632-1.307c-0.359-0.296-0.892-0.442-1.593-0.442
		c-0.732,0-1.266,0.134-1.6,0.402c-0.334,0.268-0.502,0.591-0.502,0.97c0,0.328,0.119,0.598,0.355,0.811
		c0.234,0.211,0.84,0.43,1.823,0.651c0.983,0.223,1.657,0.417,2.023,0.583c0.53,0.245,0.923,0.553,1.177,0.93
		c0.253,0.374,0.379,0.807,0.379,1.296c0,0.487-0.138,0.942-0.417,1.372c-0.279,0.43-0.677,0.764-1.198,1.002
		c-0.521,0.238-1.106,0.357-1.76,0.357c-0.825,0-1.517-0.121-2.074-0.362c-0.559-0.24-0.996-0.602-1.313-1.087
		C258.088,106.869,257.922,106.322,257.905,105.712L257.905,105.712z"/>
	<polygon fill="#838754" points="275.993,108.648 275.993,99.507 277.206,99.507 277.206,108.648 275.993,108.648 	"/>
	<polygon fill="#838754" points="282.161,108.648 282.161,99.507 283.403,99.507 288.199,106.682 288.199,99.507 289.361,99.507 
		289.361,108.648 288.118,108.648 283.322,101.473 283.322,108.648 282.161,108.648 	"/>
	<polygon fill="#838754" points="296.554,108.648 296.554,100.58 293.541,100.58 293.541,99.507 300.779,99.507 300.779,100.58 
		297.766,100.58 297.766,108.648 296.554,108.648 	"/>
	<polygon fill="#838754" points="304.891,108.648 304.891,99.507 311.491,99.507 311.491,100.58 306.104,100.58 306.104,103.388 
		311.146,103.388 311.146,104.461 306.104,104.461 306.104,107.575 311.708,107.575 311.708,108.648 304.891,108.648 	"/>
	<path fill="#838754" d="M320.495,105.061v-1.072h3.868v3.387c-0.594,0.472-1.206,0.83-1.838,1.068
		c-0.632,0.238-1.281,0.357-1.945,0.357c-0.898,0-1.713-0.192-2.447-0.577c-0.732-0.383-1.287-0.94-1.659-1.666
		c-0.375-0.728-0.562-1.54-0.562-2.436c0-0.889,0.185-1.719,0.557-2.491c0.372-0.77,0.906-1.343,1.604-1.715
		c0.698-0.375,1.502-0.562,2.413-0.562c0.66,0,1.257,0.106,1.791,0.321c0.534,0.215,0.953,0.513,1.255,0.894
		c0.304,0.383,0.534,0.883,0.692,1.498l-1.092,0.298c-0.138-0.464-0.309-0.83-0.511-1.098c-0.204-0.266-0.494-0.479-0.872-0.638
		c-0.377-0.159-0.796-0.24-1.257-0.24c-0.551,0-1.028,0.085-1.432,0.253c-0.402,0.168-0.725,0.389-0.974,0.666
		c-0.247,0.275-0.438,0.576-0.575,0.904c-0.232,0.568-0.349,1.181-0.349,1.843c0,0.817,0.14,1.5,0.419,2.051
		c0.281,0.549,0.689,0.957,1.223,1.223c0.536,0.266,1.104,0.4,1.706,0.4c0.523,0,1.034-0.102,1.532-0.304
		c0.498-0.204,0.875-0.419,1.132-0.651v-1.713H320.495L320.495,105.061z"/>
	<path fill="#838754" d="M329.011,108.648v-9.141h4.051c0.815,0,1.434,0.083,1.857,0.247c0.423,0.164,0.762,0.453,1.015,0.868
		c0.253,0.415,0.379,0.874,0.379,1.377c0,0.649-0.211,1.196-0.63,1.64c-0.419,0.445-1.066,0.726-1.943,0.847
		c0.321,0.153,0.564,0.306,0.73,0.456c0.353,0.323,0.687,0.73,1,1.217l1.581,2.489h-1.511l-1.209-1.902
		c-0.351-0.551-0.642-0.97-0.87-1.262c-0.23-0.291-0.434-0.494-0.615-0.611c-0.179-0.115-0.364-0.196-0.551-0.243
		c-0.136-0.028-0.36-0.043-0.672-0.043h-1.4v4.06H329.011L329.011,108.648z M330.224,103.541h2.596c0.553,0,0.983-0.057,1.294-0.172
		c0.311-0.113,0.547-0.296,0.706-0.549c0.162-0.251,0.242-0.524,0.242-0.819c0-0.432-0.155-0.789-0.468-1.068
		c-0.313-0.279-0.807-0.417-1.481-0.417h-2.889V103.541L330.224,103.541z"/>
	<path fill="#838754" d="M340.04,108.648l3.506-9.141h1.33l3.721,9.141h-1.377l-1.057-2.77h-3.849l-0.992,2.77H340.04
		L340.04,108.648z M342.67,104.895h3.115l-0.953-2.534c-0.287-0.77-0.504-1.406-0.655-1.908c-0.125,0.596-0.294,1.181-0.504,1.76
		L342.67,104.895L342.67,104.895z"/>
	<path fill="#838754" d="M352.394,108.648v-9.141h3.149c0.711,0,1.253,0.043,1.628,0.13c0.523,0.121,0.97,0.34,1.34,0.655
		c0.483,0.409,0.843,0.928,1.081,1.562c0.24,0.634,0.36,1.36,0.36,2.174c0,0.694-0.081,1.309-0.242,1.845
		c-0.162,0.536-0.37,0.981-0.623,1.332c-0.255,0.351-0.532,0.628-0.834,0.828c-0.3,0.202-0.664,0.355-1.089,0.46
		c-0.427,0.104-0.917,0.155-1.47,0.155H352.394L352.394,108.648z M353.607,107.575h1.949c0.602,0,1.074-0.055,1.417-0.168
		c0.342-0.113,0.615-0.27,0.819-0.475c0.285-0.287,0.508-0.674,0.668-1.16c0.16-0.485,0.24-1.072,0.24-1.764
		c0-0.957-0.157-1.694-0.47-2.208c-0.313-0.515-0.694-0.859-1.142-1.034c-0.323-0.125-0.845-0.187-1.564-0.187h-1.917V107.575
		L353.607,107.575z"/>
	<path fill="#838754" d="M363.449,108.648l3.506-9.141h1.33l3.721,9.141h-1.376l-1.057-2.77h-3.849l-0.992,2.77H363.449
		L363.449,108.648z M366.079,104.895h3.115l-0.953-2.534c-0.287-0.77-0.504-1.406-0.655-1.908c-0.125,0.596-0.294,1.181-0.504,1.76
		L366.079,104.895L366.079,104.895z"/>
	<path fill="#838754" d="M375.408,105.712l1.136-0.102c0.053,0.459,0.179,0.836,0.377,1.132c0.198,0.294,0.504,0.532,0.919,0.715
		c0.415,0.181,0.883,0.272,1.402,0.272c0.462,0,0.868-0.068,1.221-0.206c0.353-0.138,0.615-0.327,0.787-0.568
		c0.172-0.241,0.26-0.502,0.26-0.783c0-0.285-0.083-0.534-0.249-0.749c-0.166-0.213-0.44-0.392-0.823-0.538
		c-0.245-0.094-0.787-0.242-1.628-0.445c-0.84-0.202-1.428-0.391-1.764-0.57c-0.436-0.23-0.759-0.515-0.972-0.853
		c-0.215-0.338-0.321-0.719-0.321-1.138c0-0.464,0.132-0.896,0.394-1.296c0.262-0.402,0.642-0.706,1.147-0.915
		c0.502-0.209,1.062-0.313,1.677-0.313c0.677,0,1.275,0.109,1.791,0.328c0.517,0.217,0.915,0.538,1.194,0.964
		c0.279,0.423,0.428,0.904,0.449,1.441l-1.161,0.089c-0.062-0.577-0.273-1.013-0.632-1.307c-0.36-0.296-0.892-0.442-1.594-0.442
		c-0.732,0-1.266,0.134-1.6,0.402c-0.334,0.268-0.502,0.591-0.502,0.97c0,0.328,0.119,0.598,0.355,0.811
		c0.234,0.211,0.84,0.43,1.823,0.651c0.983,0.223,1.657,0.417,2.023,0.583c0.53,0.245,0.923,0.553,1.177,0.93
		c0.253,0.374,0.379,0.807,0.379,1.296c0,0.487-0.138,0.942-0.417,1.372c-0.279,0.43-0.677,0.764-1.198,1.002
		c-0.521,0.238-1.106,0.357-1.76,0.357c-0.825,0-1.517-0.121-2.074-0.362c-0.559-0.24-0.996-0.602-1.313-1.087
		C375.591,106.869,375.425,106.322,375.408,105.712L375.408,105.712z"/>
	<path fill="#838754" d="M169.362,108.648v-3.872l-3.523-5.268h1.455l1.806,2.766c0.336,0.513,0.649,1.026,0.934,1.538
		c0.279-0.479,0.617-1.015,1.011-1.611l1.77-2.694h1.411l-3.651,5.268v3.872H169.362L169.362,108.648z"/>
</g>
</svg>
